<mxfile host="app.diagrams.net" modified="2024-01-18T18:14:11.219Z" agent="Mozilla/5.0 (Macintosh; Intel Mac OS X 10_15_7) AppleWebKit/605.1.15 (KHTML, like Gecko) Version/17.2 Safari/605.1.15" version="22.1.21" etag="CeExKyx1dgCkbdceytqG" type="github">
  <diagram name="Page-1" id="NIk2IFCYLicVQ5KHg5Qn">
    <mxGraphModel>
      <root>
        <mxCell id="0" />
        <mxCell id="1" parent="0" />
      </root>
    </mxGraphModel>
  </diagram>
</mxfile>
